# xmcd
#
# Track frame offsets:
#	150
#	27937
#	42328
#	56371
#	81964
#	95262
#	111875
#
# Disc length: 2002 seconds
#
# Revision: 1
# Processed by: cddbd v1.5.1PL0 Copyright (c) Steve Scherf et al.
# Submitted via: audiograbber 1.83.01
#
DISCID=4f07d007
DTITLE=The Mavericks - Live At The Royal Albert Hall - CD 2
DYEAR=1998
DGENRE=Country
TTITLE0=Dance The Night Away
TTITLE1=The Things You Said To Me
TTITLE2=There Goes My Heart
TTITLE3=Melbourne Mambo
TTITLE4=It's Not Unusual
TTITLE5=A Man Without Love
TTITLE6=All You Ever Do Is Bring Me Down
EXTD=
EXTT0=
EXTT1=
EXTT2=
EXTT3=
EXTT4=
EXTT5=
EXTT6=
PLAYORDER=
